<svg width="68" height="60" viewBox="0 0 68 60" fill="none" xmlns="http://www.w3.org/2000/svg">
<g clip-path="url(#clip0)">
<path d="M29.308 60H68V41.6863C67.9983 39.4536 67.4538 37.2627 66.424 35.3444C65.3941 33.4261 63.9169 31.8512 62.148 30.7858C63.0126 29.2703 63.5459 27.5518 63.7054 25.7672C63.865 23.9825 63.6463 22.1813 63.0669 20.507C62.4874 18.8328 61.5633 17.3319 60.3681 16.1241C59.1729 14.9162 57.7398 14.0349 56.1831 13.5504C56.6293 10.7532 56.1296 7.8717 54.7798 5.45763C53.4299 3.04356 51.3247 1.26654 48.8672 0.46679C46.4098 -0.332959 43.7727 -0.0992413 41.4609 1.1232C39.1491 2.34564 37.325 4.4709 36.3379 7.09209C34.7482 6.7127 33.1028 6.72617 31.5184 7.13152C30.5331 4.73364 28.8376 2.78208 26.7136 1.60134C24.5897 0.420596 22.1653 0.0818218 19.8437 0.64135C17.5221 1.20088 15.4431 2.62499 13.9524 4.67689C12.4618 6.72878 11.6492 9.28482 11.6499 11.92C11.6531 12.4705 11.6924 13.02 11.7674 13.5641C10.2178 14.0571 8.79305 14.9436 7.60603 16.1535C6.41901 17.3633 5.50237 18.8632 4.92878 20.5342C4.35519 22.2053 4.14041 24.0016 4.30147 25.7807C4.46253 27.5598 4.99499 29.2729 5.85666 30.7841C4.08609 31.8483 2.60738 33.4229 1.57656 35.3418C0.545744 37.2606 0.00106284 39.4526 0 41.6863V60H29.308ZM38.6935 56.4579H29.308V41.6863C29.3071 39.468 28.7697 37.2907 27.7518 35.3812C26.7339 33.4718 25.2729 31.9002 23.5209 30.8304C24.3642 29.8777 25.3902 29.1481 26.5227 28.6959C28.5793 30.7366 31.242 31.8649 34.0015 31.8649C36.7611 31.8649 39.4238 30.7366 41.4804 28.6959C42.6125 29.1491 43.6383 29.8786 44.4822 30.8304C42.7307 31.9008 41.2699 33.4725 40.2521 35.3818C39.2343 37.2911 38.6966 39.4682 38.6951 41.6863V56.4562L38.6935 56.4579ZM64.8066 41.688V56.4579H41.8885V41.6863C41.8903 39.9539 42.3495 38.26 43.2092 36.8138C44.069 35.3675 45.2917 34.2321 46.7265 33.5478C48.5893 35.2573 50.9313 36.1926 53.3491 36.1926C55.7668 36.1926 58.1088 35.2573 59.9716 33.5478C61.4067 34.2318 62.6296 35.3671 63.4894 36.8134C64.3492 38.2598 64.8082 39.9538 64.8097 41.6863L64.8066 41.688ZM60.559 24.6481C60.559 26.2306 60.1359 27.7775 59.3433 29.0934C58.5506 30.4092 57.424 31.4347 56.1058 32.0403C54.7877 32.6459 53.3372 32.8044 51.9379 32.4956C50.5385 32.1869 49.2532 31.4249 48.2443 30.3058C47.2354 29.1868 46.5484 27.7611 46.27 26.209C45.9917 24.6569 46.1345 23.0481 46.6805 21.5861C47.2265 20.124 48.1512 18.8744 49.3375 17.9952C50.5238 17.116 51.9185 16.6467 53.3452 16.6467C55.2577 16.6485 57.0913 17.4919 58.4438 18.9916C59.7962 20.4914 60.557 22.5251 60.559 24.6463V24.6481ZM45.9413 3.53632C47.854 3.53813 49.6879 4.38171 51.0404 5.88186C52.3929 7.38201 53.1535 9.41613 53.1551 11.5377C53.1545 12.0685 53.1069 12.5979 53.0129 13.1184C51.4917 13.1713 49.9996 13.5946 48.6424 14.3584C47.2851 15.1222 46.096 16.2078 45.1592 17.5382C44.9047 15.604 44.2464 13.7624 43.2369 12.1601C42.2274 10.5579 40.8944 9.23926 39.3443 8.30934C39.9094 6.89093 40.8336 5.68493 42.0046 4.83769C43.1756 3.99044 44.5432 3.53837 45.9413 3.53632ZM34.0054 10.3615C35.6067 10.3615 37.1721 10.8882 38.5035 11.875C39.835 12.8618 40.8727 14.2643 41.4855 15.9052C42.0983 17.5462 42.2586 19.3518 41.9462 21.0938C41.6338 22.8358 40.8627 24.4359 39.7304 25.6919C38.5981 26.9478 37.1555 27.8031 35.5849 28.1496C34.0144 28.4961 32.3865 28.3182 30.9071 27.6385C29.4276 26.9588 28.1632 25.8078 27.2735 24.331C26.3839 22.8542 25.909 21.118 25.909 19.3418C25.9119 16.9611 26.7658 14.6788 28.2836 12.9953C29.8013 11.3119 31.859 10.3647 34.0054 10.3615ZM22.0633 3.91864C23.4096 3.92195 24.7281 4.34293 25.8699 5.134C27.0116 5.92507 27.9311 7.05466 28.5244 8.39507C27.0074 9.33251 25.7054 10.6449 24.7195 12.2305C23.7336 13.8161 23.0902 15.6323 22.8393 17.5382C21.8972 16.1998 20.6997 15.109 19.3328 14.3443C17.9659 13.5796 16.4634 13.1598 14.933 13.1149C14.7699 11.9755 14.8324 10.8103 15.116 9.70024C15.3996 8.59022 15.8977 7.56194 16.5755 6.6868C17.2533 5.81165 18.0947 5.11059 19.0413 4.63228C19.9879 4.15397 21.017 3.90987 22.0571 3.91693L22.0633 3.91864ZM14.6532 16.6467C16.08 16.6467 17.4747 17.116 18.661 17.9952C19.8473 18.8744 20.7719 20.124 21.3179 21.5861C21.8639 23.0481 22.0068 24.6569 21.7284 26.209C21.4501 27.7611 20.763 29.1868 19.7542 30.3058C18.7453 31.4249 17.4599 32.1869 16.0606 32.4956C14.6612 32.8044 13.2108 32.6459 11.8926 32.0403C10.5745 31.4347 9.44786 30.4092 8.6552 29.0934C7.86254 27.7775 7.43946 26.2306 7.43946 24.6481C7.44109 22.5265 8.20164 20.4924 9.55413 18.9923C10.9066 17.4921 12.7405 16.6485 14.6532 16.6467ZM3.19342 41.6863C3.19527 39.9539 3.65441 38.26 4.51416 36.8138C5.37392 35.3675 6.59665 34.2321 8.03146 33.5478C9.89425 35.2573 12.2363 36.1926 14.654 36.1926C17.0718 36.1926 19.4138 35.2573 21.2766 33.5478C22.7116 34.2318 23.9346 35.3671 24.7944 36.8134C25.6542 38.2598 26.1132 39.9538 26.1146 41.6863V56.4562H3.19187L3.19342 41.6863Z" fill="#E1EFFE"/>
</g>
<defs>
<clipPath id="clip0">
<rect width="68" height="60" fill="white"/>
</clipPath>
</defs>
</svg>
