<svg width="68" height="80" viewBox="0 0 68 80" fill="none" xmlns="http://www.w3.org/2000/svg">
<g clip-path="url(#clip0)">
<path d="M53.9985 20.3545C50.2912 20.2447 46.6343 21.205 43.4963 23.1126V9.06423H40.3659V15.2864L38.8008 16.7964V4.61812H35.6601V19.9065L34.0949 21.4165V0H30.9646V21.3325L29.3994 19.8225V4.62212H26.269V16.8904L24.7039 15.3804V9.15423H21.5632V19.2905V21.3325V30.2228C19.0755 25.6886 16.9568 22.0446 16.4012 21.1565L15.1118 18.9345L13.729 21.0665C13.1755 21.9545 0.00112879 42.3111 0.00112879 51.6453C-0.0229764 53.5362 0.339208 55.4133 1.067 57.1692C1.79479 58.9251 2.87394 60.5255 4.24283 61.879C5.61172 63.2326 7.24354 64.3128 9.04512 65.0579C10.8467 65.803 12.7828 66.1984 14.7428 66.2217V70.1318L15.572 70.5758L31.8808 79.556L32.7101 80L50.5862 70.1318V67.3737C51.8059 67.5542 53.0382 67.6438 54.2721 67.6417C61.9197 67.6417 68 64.2636 68 59.9075V28.0887C67.7222 23.8206 61.7331 20.3525 53.9922 20.3525L53.9985 20.3545ZM34.097 75.6499V61.0695L47.1801 53.8693V68.3597L34.097 75.6499ZM32.5318 58.4915L19.4486 51.2913L32.5318 44.0911L45.615 51.2913L32.5318 58.4915ZM40.3639 42.5771L38.8878 44.0011L35.7575 42.3131L40.3639 37.8689V42.5771ZM34.097 25.6866L40.3639 19.6405V24.3526L34.097 30.4008V25.6866ZM34.097 37.7789V34.7589L40.3639 28.7127V33.4248L34.097 39.471V37.7789ZM24.6997 19.6465L30.9666 25.6926V30.4008L24.6997 24.3546V19.6465ZM24.6997 28.7127L30.9666 34.7589V39.467L24.6997 33.4208V28.7127ZM29.3061 42.3131L27.7409 43.2011C27.1874 41.867 26.636 40.443 25.9912 39.111L29.3061 42.3131ZM3.04647 51.7333C3.04647 48.2672 5.34966 42.2231 9.58909 34.2209C11.6145 30.4888 13.642 27.1087 14.9335 24.9766C18.701 31.3479 22.0548 37.9387 24.9754 44.7111L18.9863 48.0012L15.4849 49.9552L14.6557 50.3993V63.2896C11.54 63.2066 8.58142 61.9513 6.41218 59.7919C4.24293 57.6326 3.035 54.7404 3.04647 51.7333ZM17.7881 53.8693L30.8713 61.0695V75.5599L17.7881 68.3597V53.8693ZM64.5939 60.0015C64.5939 62.2236 60.2633 64.7136 54.0917 64.7136C52.853 64.7356 51.6158 64.6168 50.4058 64.3596V56.8014C51.6255 56.982 52.8578 57.0716 54.0917 57.0694C57.799 57.1793 61.4559 56.2189 64.5939 54.3114V60.0015ZM64.5939 49.3332C64.5939 51.5553 60.2633 54.0454 54.0917 54.0454C52.853 54.0673 51.6158 53.9485 50.4058 53.6913V50.3153L49.5766 49.8712L44.2322 46.9372L43.4942 46.5832V43.7391C46.6332 45.6445 50.2894 46.6047 53.9964 46.4972C57.7037 46.607 61.3605 45.6466 64.4986 43.7391V49.3392L64.5939 49.3332ZM64.5939 38.757C64.5939 40.979 60.2633 43.4691 54.0917 43.4691C47.9202 43.4691 43.5896 40.979 43.5896 38.757V33.1568C46.7286 35.0622 50.3848 36.0224 54.0917 35.9149C57.799 36.0247 61.4559 35.0644 64.5939 33.1568V38.757ZM53.9985 32.8008C47.8249 32.8008 43.4963 30.3108 43.4963 28.0887C43.4963 25.8666 47.8269 23.3766 53.9985 23.3766C60.17 23.3766 64.5006 25.8666 64.5006 28.0887C64.5006 30.3108 60.2633 32.8008 53.9985 32.8008Z" fill="#E1EFFE"/>
</g>
<defs>
<clipPath id="clip0">
<rect width="68" height="80" fill="white"/>
</clipPath>
</defs>
</svg>
