<svg width="68" height="68" viewBox="0 0 68 68" fill="none" xmlns="http://www.w3.org/2000/svg">
<g clip-path="url(#clip0)">
<path d="M67.3691 28.1324L55.9242 18.3054V4.25272C55.9242 3.76578 55.7441 3.29878 55.4233 2.95446C55.1026 2.61015 54.6676 2.41671 54.214 2.41671H45.9833C45.5297 2.41671 45.0947 2.61015 44.774 2.95446C44.4532 3.29878 44.2731 3.76578 44.2731 4.25272V8.30359L35.0759 0.403905C34.7726 0.142485 34.3953 0 34.0063 0C33.6174 0 33.2401 0.142485 32.9368 0.403905L0.639883 28.1324C0.286267 28.4371 0.0597953 28.88 0.0102486 29.3638C-0.0392981 29.8476 0.0921352 30.3327 0.375659 30.7126L6.1162 38.418C6.39995 38.7976 6.81251 39.0407 7.26318 39.0939C7.71385 39.1471 8.16575 39.006 8.51955 38.7016L9.75923 37.6369V66.164C9.75923 66.6509 9.93942 67.1179 10.2601 67.4622C10.5809 67.8066 11.0159 68 11.4695 68H56.5323C56.9859 68 57.4209 67.8066 57.7416 67.4622C58.0624 67.1179 58.2425 66.6509 58.2425 66.164V37.6389L59.4822 38.7036C59.7861 38.9641 60.1629 39.1072 60.5518 39.1096H60.7328C61.1832 39.0555 61.5953 38.8116 61.8783 38.4316L67.6189 30.7184C67.9044 30.3393 68.0381 29.854 67.9906 29.3691C67.9431 28.8843 67.7219 28.4395 67.3691 28.1324ZM47.6844 6.09066H52.493V15.3678L48.1387 11.6298L47.6844 11.2412V6.09066ZM20.3173 64.328V40.9437H29.8547V64.328H20.3173ZM54.8185 34.6624V64.328H33.2824V39.1057C33.2824 38.6188 33.1022 38.1518 32.7815 37.8075C32.4608 37.4632 32.0258 37.2697 31.5722 37.2697H18.6071C18.1535 37.2697 17.7185 37.4632 17.3978 37.8075C17.0771 38.1518 16.8969 38.6188 16.8969 39.1057V64.328H13.1923V34.6974L34.0045 16.823L54.8185 34.6624ZM60.2858 34.6624L35.0741 13.0306C34.7708 12.7692 34.3935 12.6267 34.0045 12.6267C33.6156 12.6267 33.2382 12.7692 32.9349 13.0306L7.72507 34.6896L4.12185 29.8499L34.0045 4.1886L44.901 13.5551L46.6113 15.0511L63.8854 29.846L60.2858 34.6624Z" fill="#E1EFFE"/>
<path d="M37.6549 53.0417H49.4056C49.8592 53.0417 50.2942 52.8483 50.6149 52.5039C50.9356 52.1596 51.1158 51.6926 51.1158 51.2057V39.1075C51.1158 38.6206 50.9356 38.1536 50.6149 37.8092C50.2942 37.4649 49.8592 37.2715 49.4056 37.2715H37.6549C37.2013 37.2715 36.7663 37.4649 36.4455 37.8092C36.1248 38.1536 35.9446 38.6206 35.9446 39.1075V51.2057C35.9451 51.6925 36.1254 52.1592 36.4461 52.5034C36.7667 52.8476 37.2014 53.0412 37.6549 53.0417ZM39.3651 40.9435H47.6899V49.3677H39.3651V40.9435Z" fill="#E1EFFE"/>
</g>
<defs>
<clipPath id="clip0">
<rect width="68" height="68" fill="white"/>
</clipPath>
</defs>
</svg>
